<svg width="100" height="100" viewBox="0 0 100 100" fill="none" xmlns="http://www.w3.org/2000/svg">
  <circle cx="50" cy="50" r="45" fill="#1e5d38" fill-opacity="0.05"/>
  <path d="M65 30C65 30 85 30 85 55C85 75 65 75 65 50C65 25 65 30 65 30Z" fill="#1e5d38" fill-opacity="0.4"/>
  <path d="M35 30C35 30 15 30 15 55C15 75 35 75 35 50C35 25 35 30 35 30Z" fill="#1e5d38" fill-opacity="0.4"/>
  <path d="M25 55C25 71.5685 36.1929 85 50 85C63.8071 85 75 71.5685 75 55H25Z" fill="#1e5d38"/>
  <path d="M40 85H60L58 89H42L40 85Z" fill="#1e5d38"/>
  <rect x="46" y="20" width="8" height="40" rx="4" fill="#1e5d38" transform="rotate(-15, 50, 40)"/>
  <circle cx="43" cy="22" r="6" fill="#1e5d38"/>
  <path d="M50 45C50 45 50 15 75 15C75 15 75 45 50 45Z" fill="#2d8a54"/>
  <path d="M50 45C50 45 75 45 75 75C75 75 50 75 50 45Z" fill="#1e5d38" fill-opacity="0.8"/>
</svg>
