<svg width="100" height="100" viewBox="0 0 100 100" fill="none" xmlns="http://www.w3.org/2000/svg">
  <g transform="translate(0, 0) scale(0.7)">
    <!-- Central letter D base -->
    <path d="M 20 20 L 40 20 C 70 20 90 40 90 70 C 90 100 70 120 40 120 L 20 120 Z" fill="none" stroke="#2d8a54" stroke-width="12" stroke-linecap="round" stroke-linejoin="round"/>
    
    <!-- Left upright stroke -->
    <rect x="25" y="25" width="12" height="90" rx="3" fill="#1e5d38"/>
    
    <!-- Decorative vine entering the D -->
    <path d="M 82 45 C 75 40 65 35 55 35 M 95 70 C 95 55 85 45 70 42" stroke="#1e5d38" stroke-width="4" stroke-linecap="round"/>
    <path d="M 75 38 C 70 30 75 25 80 25 C 80 30 85 30 75 38 Z" fill="#2d8a54"/>
    <path d="M 88 55 C 80 45 88 38 95 38 C 95 45 102 50 88 55 Z" fill="#2d8a54"/>
    <path d="M 92 85 C 85 75 92 68 98 68 C 98 75 105 80 92 85 Z" fill="#2d8a54"/>
    
    <!-- Central Mortar Bowl -->
    <path d="M 30 80 C 30 95 45 105 60 105 C 75 105 90 95 90 80" fill="none" stroke="#1e5d38" stroke-width="8" stroke-linecap="round"/>
    <path d="M 28 80 L 92 80" stroke="#1e5d38" stroke-width="6" stroke-linecap="round"/>
    <!-- Mortar base -->
    <path d="M 50 105 L 70 105 L 75 115 L 45 115 Z" fill="#1e5d38"/>
    
    <!-- Pestle pointing diagonally inward -->
    <path d="M 50 78 L 65 50" stroke="#1e5d38" stroke-width="8" stroke-linecap="round"/>
    <circle cx="68" cy="48" r="6" fill="#1e5d38"/>
  </g>
</svg>
