<svg width="512" height="512" viewBox="0 0 512 512" fill="none" xmlns="http://www.w3.org/2000/svg">
  <!-- Glowing circular background -->
  <circle cx="256" cy="256" r="240" fill="#F4FBF4"/>

  <!-- Outer Ring -->
  <circle cx="256" cy="256" r="230" stroke="#1A5319" stroke-width="12"/>

  <!-- Background color for the glass -->
  <path d="M220 230 L160 350 A 30 30 0 0 0 186 396 H326 A 30 30 0 0 0 352 350 L292 230 V170 H220 Z" fill="#E8F5E9" opacity="0.8"/>
  
  <!-- Central Leaf - symbolizing nature and herbs -->
  <path d="M256 180 C170 180, 180 310, 256 370 C332 310, 342 180, 256 180 Z" fill="#2E7D32"/>
  
  <!-- Medical Cross embedded in the leaf -->
  <path d="M256 235 V295 M226 265 H286" stroke="#F4FBF4" stroke-width="14" stroke-linecap="round"/>

  <!-- Flask / Beaker Outline - symbolizing clinical/laboratory extraction -->
  <path d="M220 170 V230 L160 350 A 30 30 0 0 0 186 396 H326 A 30 30 0 0 0 352 350 L292 230 V170" stroke="#1A5319" stroke-width="20" stroke-linejoin="round" stroke-linecap="round" fill="none"/>
  
  <!-- Flask Lip -->
  <rect x="204" y="150" width="104" height="20" rx="10" fill="#1A5319" />
  
  <!-- Liquid Wave inside flask -->
  <path d="M174 340 Q256 315 338 340" stroke="#1A5319" stroke-width="12" stroke-linecap="round" fill="none"/>
  
  <!-- Precious Golden Extract Droplet (falling into flask) -->
  <path d="M256 80 C256 80, 236 104, 236 118 C236 129, 245 138, 256 138 C267 138, 276 129, 276 118 C276 104, 256 80, 256 80 Z" fill="#D4AF37"/>
</svg>
